Coordinates
version=1
nRows=16
nColumns=18
inDegrees=yes

Units are S.I. units (second, meters, Newtons, ...)
Angles are in degrees.

endheader
time	ground_thorax_rot_x	ground_thorax_rot_y	ground_thorax_rot_z	ground_thorax_tx	ground_thorax_ty	ground_thorax_tz	clav_prot	clav_elev	scapula_abduction	scapula_elevation	scapula_upward_rot	scapula_winging	plane_elv	shoulder_elv	axial_rot	elbow_flexion	pro_sup
      0.00000000	      1.65521603	     -4.01830469	     -9.43594152	     -0.00423131	      0.00403036	     -0.00078352	    -21.20112542	     -6.48889016	    -11.21747336	     -4.86919666	     10.12684050	      6.76033275	    -34.31669635	     16.35312196	     49.81537725	      0.00000000	     34.32000000
      0.01000000	      1.65275514	     -3.97728942	     -9.43063605	     -0.00423131	      0.00403036	     -0.00078352	    -21.15860043	     -6.59703546	    -11.28887256	     -4.86656194	      9.81762764	      6.86958536	    -33.16976343	     16.70386574	     46.85818598	      0.00000000	     34.32000000
      0.02000000	      1.71633224	     -3.93921627	     -9.40215389	     -0.00423131	      0.00403036	     -0.00078352	    -21.15605327	     -6.60933590	    -11.28862607	     -4.87254547	      9.80512997	      6.87710300	    -33.16810143	     16.68686970	     46.87237231	      0.00000000	     34.32000000
      0.03000000	      1.88283226	     -4.06669800	     -9.43415278	     -0.00423131	      0.00403036	     -0.00078352	    -21.00587233	     -6.54389714	    -10.91589258	     -4.87618242	     10.03746686	      6.78343682	    -33.55828338	     16.74562271	     46.22998108	      0.00000000	     34.32000000
      0.04000000	      1.83758637	     -3.72334388	     -9.41240693	     -0.00423131	      0.00403036	     -0.00078352	    -21.39207639	     -6.55039982	    -11.54065488	     -4.92513118	     10.11585859	      6.80246952	    -34.65265926	     16.22776819	     53.03917259	      0.00000000	     34.32000000
      0.05000000	      1.77986450	     -3.71316131	     -9.41915995	     -0.00423131	      0.00403036	     -0.00078352	    -21.38365535	     -6.55388414	    -11.51594705	     -4.93206903	     10.13314357	      6.79875021	    -34.65322840	     16.26776503	     53.04033787	      0.00000000	     34.32000000
      0.06000000	      1.78720036	     -3.98891157	     -9.42069855	     -0.00423131	      0.00403036	     -0.00078352	    -21.05465329	     -6.61256739	    -10.98796942	     -4.93112029	     10.03298730	      6.81435464	    -33.77149808	     16.83292976	     48.54562275	      0.00000000	     34.32000000
      0.07000000	      1.80171742	     -4.13882993	     -9.37290186	     -0.00423131	      0.00403036	     -0.00078352	    -20.85557996	     -6.61140971	    -10.68372181	     -4.89850995	      9.95891035	      6.81228145	    -33.49254932	     17.03616101	     47.29461770	      0.00000000	     34.32000000
      0.08000000	      1.85629605	     -4.10625854	     -9.42119068	     -0.00423131	      0.00403036	     -0.00078352	    -20.91514507	     -6.63440132	    -10.78039581	     -4.92057582	      9.96169367	      6.82573266	    -33.33709739	     17.13639571	     47.06701116	      0.00000000	     34.32000000
      0.09000000	      1.47828953	     -4.13203539	     -9.39377095	     -0.00423131	      0.00403036	     -0.00078352	    -20.77619524	     -7.05050240	    -10.72163698	     -5.10001666	      9.46304194	      7.08477388	    -33.01047448	     17.71560515	     42.18731458	      0.00000000	     34.32000000
      0.10000000	      1.78487049	     -4.01754716	     -9.35040706	     -0.00423131	      0.00403036	     -0.00078352	    -20.99197819	     -6.68830190	    -10.83779322	     -4.99893642	     10.07946732	      6.82528760	    -34.85330970	     16.72359612	     52.31997555	      0.00000000	     34.32000000
      0.11000000	      1.77050612	     -4.05406058	     -9.36736160	     -0.00423131	      0.00403036	     -0.00078352	    -20.97847480	     -6.68565376	    -10.75812265	     -5.02407449	     10.18291677	      6.79833010	    -35.06105243	     16.59854923	     52.67273318	      0.00000000	     34.32000000
      0.12000000	      1.80850207	     -4.16667969	     -9.34111742	     -0.00423131	      0.00403036	     -0.00078352	    -20.86378315	     -6.60474738	    -10.55364097	     -4.96600535	     10.22499852	      6.74685241	    -34.72679789	     16.87554577	     50.68458787	      0.00000000	     34.32000000
      0.13000000	      1.97330064	     -4.37347945	     -9.14611727	     -0.00423131	      0.00403036	     -0.00078352	    -20.61657960	     -6.25437931	    -10.30551183	     -4.62812778	     10.03424072	      6.63955232	    -32.96904175	     17.36086147	     47.00461665	      0.00000000	     34.32000000
      0.14000000	      1.89525968	     -4.30136694	     -9.20955787	     -0.00423131	      0.00403036	     -0.00078352	    -20.62312912	     -6.25023561	    -10.31354906	     -4.62732933	     10.04194374	      6.63732379	    -32.97184468	     17.27406383	     47.00928512	      0.00000000	     34.32000000
      0.15000000	      1.78400474	     -3.93599446	     -9.37662976	     -0.00423131	      0.00403036	     -0.00078352	    -21.00727919	     -6.49916604	    -10.95953108	     -4.82586861	      9.97984980	      6.78102030	    -32.57886880	     17.27670434	     45.21054693	      0.00000000	     34.32000000
